<svg width="18" height="17" viewBox="0 0 18 17" fill="none" xmlns="http://www.w3.org/2000/svg">
<path d="M3.39106 16.776H8.9739V10.8126H6.96809V8.8467H8.9739V6.38928C8.9739 5.03425 10.0986 3.93187 11.4812 3.93187H13.9884V5.8978H11.9826C11.4296 5.8978 10.9797 6.33873 10.9797 6.88076V8.8467H13.8979L13.5636 10.8126H10.9797V16.776H15.4928C16.8753 16.776 18.0001 15.6736 18.0001 14.3185V2.45742C18.0001 1.10238 16.8753 0 15.4928 0H3.39106C2.00853 0 0.883789 1.10238 0.883789 2.45742V14.3185C0.883789 15.6736 2.00853 16.776 3.39106 16.776ZM1.8867 2.45742C1.8867 1.64442 2.56157 0.982966 3.39106 0.982966H15.4928C16.3223 0.982966 16.9972 1.64442 16.9972 2.45742V14.3185C16.9972 15.1315 16.3223 15.793 15.4928 15.793H11.9826V11.7956H14.4132L15.0818 7.86373H11.9826V6.88076H14.9913V2.9489H11.4812C9.54561 2.9489 7.971 4.49221 7.971 6.38928V7.86373H5.96518V11.7956H7.971V15.793H3.39106C2.56157 15.793 1.8867 15.1315 1.8867 14.3185V2.45742Z" fill="white"/>
</svg>
