<svg width="18" height="17" viewBox="0 0 18 17" fill="none" xmlns="http://www.w3.org/2000/svg">
<path d="M2.73505 16.776H14.8368C16.2193 16.776 17.3441 15.6736 17.3441 14.3185V2.45742C17.3441 1.10238 16.2193 0 14.8368 0H2.73505C1.35253 0 0.227783 1.10238 0.227783 2.45742V14.3185C0.227783 15.6736 1.35253 16.776 2.73505 16.776ZM1.23069 2.45742C1.23069 1.64442 1.90556 0.982966 2.73505 0.982966H14.8368C15.6663 0.982966 16.3411 1.64442 16.3411 2.45742V14.3185C16.3411 15.1315 15.6663 15.793 14.8368 15.793H2.73505C1.90556 15.793 1.23069 15.1315 1.23069 14.3185V2.45742Z" fill="white"/>
<path d="M8.78602 12.8113C11.2745 12.8113 13.2991 10.827 13.2991 8.38798C13.2991 5.94899 11.2745 3.96463 8.78602 3.96463C6.29756 3.96463 4.27295 5.94899 4.27295 8.38798C4.27295 10.827 6.29756 12.8113 8.78602 12.8113ZM8.78602 4.9476C10.7216 4.9476 12.2962 6.49091 12.2962 8.38798C12.2962 10.2851 10.7216 11.8284 8.78602 11.8284C6.85047 11.8284 5.27585 10.2851 5.27585 8.38798C5.27585 6.49091 6.85047 4.9476 8.78602 4.9476Z" fill="white"/>
<path d="M13.5157 4.70905C14.3353 4.70905 15.0021 4.05548 15.0021 3.25218C15.0021 2.44888 14.3353 1.79532 13.5157 1.79532C12.6961 1.79532 12.0293 2.44888 12.0293 3.25218C12.0293 4.05548 12.6961 4.70905 13.5157 4.70905ZM13.5157 2.76656C13.7889 2.76656 14.0112 2.98446 14.0112 3.25218C14.0112 3.51991 13.7889 3.7378 13.5157 3.7378C13.2426 3.7378 13.0202 3.51991 13.0202 3.25218C13.0202 2.98446 13.2426 2.76656 13.5157 2.76656Z" fill="white"/>
</svg>
