<svg width="18" height="14" viewBox="0 0 18 14" fill="none" xmlns="http://www.w3.org/2000/svg">
<path d="M17.6883 1.83371C16.6116 1.88234 16.6351 1.87837 16.5134 1.88836L17.1511 0.103532C17.1511 0.103532 15.1607 0.821174 14.6561 0.949548C13.3309 -0.217852 11.3611 -0.269432 9.95285 0.578888C8.79964 1.27375 8.18066 2.467 8.38712 3.86171C6.14272 3.55646 4.2517 2.51372 2.7587 0.755899L2.2865 0.200037L1.93365 0.835125C1.4877 1.63762 1.33961 2.55519 1.51656 3.41874C1.58916 3.77302 1.71257 4.11091 1.8835 4.4273L1.47842 4.27346L1.43037 4.93683C1.38166 5.6107 1.61058 6.39733 2.04282 7.04086C2.16453 7.2221 2.32123 7.42112 2.51985 7.61746L2.31052 7.58598L2.56595 8.34611C2.90169 9.34482 3.59902 10.1175 4.50399 10.547C3.6002 10.9229 2.87009 11.1628 1.67 11.5497L0.572021 11.9035L1.58616 12.4469C1.97283 12.6541 3.33916 13.3462 4.68916 13.5538C7.69005 14.0151 11.0687 13.6394 13.3433 11.6316C15.2591 9.94049 15.8878 7.53491 15.7572 5.03154C15.7375 4.65256 15.8434 4.29086 16.0554 4.01325C16.4802 3.45739 17.6857 1.83742 17.6883 1.83371ZM15.2535 3.4245C14.9013 3.88539 14.7249 4.47402 14.7565 5.08172C14.8883 7.60684 14.1873 9.56509 12.6728 10.9018C10.9038 12.4634 8.05033 13.0764 4.84443 12.5835C4.26384 12.4943 3.66379 12.2945 3.16717 12.0949C4.17334 11.7556 4.95034 11.4532 6.20514 10.8711L7.95684 10.0585L6.02284 9.93716C5.09646 9.87905 4.32509 9.43902 3.85093 8.72458C4.1027 8.71024 4.34546 8.67031 4.58717 8.60427L6.43171 8.10075L4.57176 7.65432C3.66797 7.43738 3.15281 6.90737 2.87975 6.50087C2.70046 6.23376 2.58332 5.96011 2.51306 5.70785C2.69954 5.75687 2.91697 5.79181 3.26759 5.82585L4.98912 5.99275L3.62514 4.94989C2.64234 4.19858 2.24849 3.06984 2.53722 1.98473C5.60444 5.10283 9.20577 4.86848 9.56828 4.95091C9.48849 4.19129 9.4864 4.1895 9.4655 4.11718C9.00127 2.50873 10.0187 1.69202 10.4776 1.41556C11.4361 0.838197 12.9575 0.751163 14.0114 1.70239C14.239 1.90768 14.5468 1.98845 14.8348 1.91831C15.0934 1.85534 15.3056 1.78865 15.5134 1.71608L15.0809 2.92661L15.633 2.927C15.5288 3.06395 15.4038 3.2279 15.2535 3.4245Z" fill="white"/>
</svg>
