<svg width="20" height="13" viewBox="0 0 20 13" fill="none" xmlns="http://www.w3.org/2000/svg">
<path d="M18.8356 5.67362C19.1957 5.43267 19.3228 5.07906 19.1675 4.75034C19.0118 4.42163 18.6063 4.18698 18.1082 4.13718L13.6792 3.69528C13.4906 3.67642 13.3276 3.59519 13.2433 3.47773L11.2632 0.722003C11.0409 0.412402 10.5897 0.220001 10.0868 0.220001C9.58423 0.220001 9.13298 0.412402 8.91065 0.722003L6.93019 3.47773C6.84595 3.59519 6.68259 3.67642 6.49396 3.69528L2.06494 4.13743C1.56717 4.18698 1.16171 4.42163 1.00604 4.75034C0.850738 5.07906 0.977836 5.43267 1.33789 5.67362L4.54244 7.81844C4.67906 7.90999 4.74169 8.04178 4.70946 8.17055L3.9531 11.1994C3.86812 11.5397 4.06774 11.877 4.47468 12.0802C4.88124 12.2836 5.41051 12.3101 5.85627 12.1488L9.81718 10.7188C9.98603 10.6579 10.1875 10.6579 10.3563 10.7188L14.3176 12.1488C14.511 12.2188 14.7205 12.2532 14.9289 12.2532C15.1996 12.2532 15.4692 12.1951 15.6992 12.0802C16.1061 11.877 16.3058 11.5397 16.2208 11.1994L15.4641 8.1708C15.4318 8.04178 15.4945 7.91024 15.6311 7.81869L18.8356 5.67362ZM14.7425 8.25581L15.4989 11.2844C15.537 11.4368 15.4509 11.5825 15.2685 11.6735C15.0857 11.7643 14.8582 11.7754 14.6586 11.7039L10.6973 10.2736C10.5065 10.205 10.2963 10.1703 10.0868 10.1703C9.87725 10.1703 9.66737 10.205 9.47618 10.2739L5.51563 11.7039C5.31528 11.7754 5.08782 11.7643 4.90542 11.6735C4.72301 11.5825 4.6373 11.4371 4.67503 11.2844L5.43139 8.25581C5.50428 7.96356 5.36326 7.66528 5.05412 7.45854L1.84921 5.31346C1.68768 5.20532 1.63274 5.0529 1.7027 4.90577C1.77229 4.75839 1.947 4.65729 2.17007 4.6349L6.59871 4.19301C7.02616 4.15051 7.39573 3.96641 7.58656 3.70031L9.56701 0.944585C9.66664 0.805754 9.86113 0.723009 10.0864 0.723009C10.312 0.723009 10.5061 0.805754 10.6061 0.944585L12.5866 3.70031C12.7774 3.96641 13.1466 4.15051 13.5741 4.19301L18.0031 4.6349C18.2262 4.65729 18.4009 4.75839 18.4705 4.90577C18.5401 5.0529 18.4855 5.20532 18.3239 5.31346L15.1194 7.45829C14.8103 7.66528 14.6692 7.96331 14.7425 8.25581Z" fill="#9D2929"/>
</svg>
