<svg width="19" height="13" viewBox="0 0 19 13" fill="none" xmlns="http://www.w3.org/2000/svg">
<path d="M18.1135 5.67325C18.4735 5.43232 18.6006 5.07871 18.4453 4.75C18.2897 4.42129 17.8842 4.18664 17.3861 4.13685L12.9571 3.69496C12.7685 3.6761 12.6055 3.59487 12.5213 3.47742L10.5412 0.721993C10.3189 0.412398 9.86766 0.220001 9.36478 0.220001C8.86226 0.220001 8.41101 0.412398 8.18869 0.721993L6.20827 3.47767C6.12403 3.59512 5.96067 3.67635 5.77204 3.69521L1.34312 4.1371C0.84536 4.18664 0.439534 4.42154 0.28387 4.75025C0.128572 5.07896 0.255667 5.43257 0.61571 5.6735L3.8202 7.81829C3.95682 7.90983 4.01945 8.04162 3.98722 8.17039L3.23124 11.1989C3.16421 11.4655 3.26603 11.7248 3.51729 11.9293C3.90774 12.2479 4.58936 12.345 5.13437 12.1483L9.0952 10.7183C9.26076 10.6587 9.46916 10.6592 9.63435 10.7183L13.5955 12.1483C13.7882 12.218 13.9937 12.2532 14.2058 12.2532C14.5929 12.2532 14.9599 12.135 15.2123 11.9293C15.4639 11.7248 15.5653 11.465 15.4983 11.1989L14.742 8.17039C14.7097 8.04137 14.7724 7.90983 14.909 7.81829L18.1135 5.67325Z" fill="#9D2929"/>
</svg>
